<svg width="25" height="24" viewBox="0 0 25 24" fill="none" xmlns="http://www.w3.org/2000/svg">
<path d="M13.0289 2.40043L12.9946 2.43466L12.9934 2.43586C12.8572 2.31684 12.682 2.25067 12.5 2.25067C12.318 2.25067 12.1428 2.31684 12.0066 2.43586L12.0054 2.43466L11.9711 2.40043M13.0289 2.40043C13.0413 2.41141 13.0535 2.42281 13.0653 2.43462L13.03 2.3993L13.0289 2.40043ZM13.0289 2.40043C12.8832 2.27207 12.6953 2.20067 12.5 2.20067C12.3047 2.20067 12.1168 2.27207 11.9711 2.40043M11.9711 2.40043L11.97 2.3993L11.9347 2.43463C11.9465 2.42282 11.9587 2.41141 11.9711 2.40043ZM11.8993 2.47001L11.8993 2.46999L11.9346 2.43466L11.8993 2.47001ZM11.8993 2.47001L4.95398 9.41533M11.8993 2.47001L11.9346 2.50537L5.16774 9.27227C5.08984 9.30784 5.01755 9.35595 4.95398 9.41533M4.95398 9.41533C4.94733 9.42154 4.94077 9.42787 4.93432 9.43433C4.92786 9.44078 4.92153 9.44734 4.91532 9.45399M4.95398 9.41533L4.93465 9.43466L4.91532 9.45399M4.91532 9.45399L2.93526 11.434M4.91532 9.45399C4.85594 9.51756 4.80783 9.58985 4.77226 9.66775L3.00536 11.4347L2.97123 11.4005L2.93592 11.4334C2.9357 11.4336 2.93548 11.4338 2.93526 11.434M2.93526 11.434C2.85697 11.5072 2.79415 11.5953 2.75055 11.6931C2.70682 11.7913 2.68331 11.8972 2.68142 12.0046C2.67952 12.112 2.69928 12.2187 2.73952 12.3183C2.77975 12.4179 2.83964 12.5084 2.91561 12.5844C2.99157 12.6604 3.08206 12.7203 3.18168 12.7605C3.28129 12.8007 3.38799 12.8205 3.49541 12.8186C3.60282 12.8167 3.70876 12.7932 3.80689 12.7495C3.90475 12.7059 3.99285 12.643 4.06597 12.5648M2.93526 11.434L2.93465 11.4347L2.89929 11.47L2.93458 11.5053C2.87722 11.5664 2.83042 11.6367 2.79622 11.7135C2.75523 11.8055 2.73319 11.9048 2.73141 12.0055C2.72963 12.1062 2.74816 12.2062 2.78588 12.2996C2.8236 12.393 2.87974 12.4778 2.95096 12.549C3.02218 12.6203 3.10702 12.6764 3.2004 12.7141C3.29379 12.7519 3.39382 12.7704 3.49452 12.7686C3.59523 12.7668 3.69454 12.7448 3.78654 12.7038C3.86329 12.6696 3.93364 12.6228 3.99471 12.5654L4.03 12.6007L4.06536 12.5654L4.06597 12.5648M4.06597 12.5648L4.7 11.9307M4.06597 12.5648C4.06617 12.5645 4.06638 12.5643 4.06658 12.5641L4.09949 12.5288L4.06536 12.4947L4.7 11.86V11.9307M4.7 11.9307V18.95H4.75V11.8807L4.7 11.9307ZM6.25 10.3807V18.95H6.3V10.3307M6.25 10.3807L18.7 10.3307M6.25 10.3807L6.3 10.3307M6.25 10.3807L12.4646 4.09537M6.3 10.3307L12.5 4.13072M6.3 10.3307V10.26L12.4646 4.09537M12.5 4.13072L18.7 10.3307M12.5 4.13072L12.4646 4.09537M12.5 4.13072L12.5354 4.09537H12.4646M18.7 10.3307V18.95H18.75V10.3807L18.7 10.3307ZM4.70045 19.05H4.75H4.75046C4.76337 19.7613 5.05153 20.4406 5.55546 20.9446C6.05939 21.4485 6.73875 21.7366 7.45 21.7496V21.75V21.7996M4.70045 19.05C4.70015 19.0334 4.7 19.0167 4.7 19V19.05H4.70045ZM4.70045 19.05C4.71337 19.7745 5.0068 20.4666 5.5201 20.9799C6.03341 21.4932 6.72549 21.7866 7.45 21.7996M7.45 21.7996V21.8H7.5C7.48332 21.8 7.46665 21.7999 7.45 21.7996ZM17.55 21.7996V21.75V21.7496C18.2612 21.7366 18.9406 21.4485 19.4445 20.9446C19.9485 20.4406 20.2366 19.7613 20.2495 19.05H20.25H20.2996M17.55 21.7996C17.5334 21.7999 17.5167 21.8 17.5 21.8H17.55V21.7996ZM17.55 21.7996C18.2745 21.7866 18.9666 21.4932 19.4799 20.9799C19.9932 20.4666 20.2866 19.7745 20.2996 19.05M20.2996 19.05H20.3V19C20.3 19.0167 20.2999 19.0334 20.2996 19.05ZM18.749 19.05C18.7234 19.7003 18.2003 20.2234 17.55 20.249V20.2H17.5C18.1624 20.2 18.7 19.6624 18.7 19V19.05H18.749ZM17.45 20.2H7.55V20.25H17.45V20.2ZM7.45 20.249C6.79974 20.2234 6.2766 19.7003 6.25098 19.05H6.3V19C6.3 19.6624 6.83762 20.2 7.5 20.2H7.45V20.249ZM7.55 21.8V21.75H17.45V21.8H7.55ZM20.3 18.95V11.9307L20.934 12.5647C21.0071 12.643 21.0952 12.7059 21.1931 12.7495C21.2912 12.7932 21.3972 12.8167 21.5046 12.8186C21.612 12.8205 21.7187 12.8007 21.8183 12.7605C21.9179 12.7203 22.0084 12.6604 22.0844 12.5844C22.1604 12.5084 22.2202 12.4179 22.2605 12.3183C22.3007 12.2187 22.3205 12.112 22.3186 12.0046C22.3167 11.8972 22.2932 11.7913 22.2495 11.6931C22.2058 11.5953 22.143 11.5071 22.0647 11.434L20.0847 9.45398C20.0785 9.44734 20.0721 9.44078 20.0657 9.43433C20.0592 9.42787 20.0527 9.42154 20.046 9.41533L13.1007 2.47001L13.1007 2.46999L13.0654 2.43466L20.3 18.95Z" fill="#38C16C" stroke="#38C16C" stroke-width="0.1"/>
</svg>
